<svg height="512pt" viewBox="0 0 512 512" width="512pt" xmlns="http://www.w3.org/2000/svg"><path d="m512 256c0 141.386719-114.613281 256-256 256s-256-114.613281-256-256 114.613281-256 256-256 256 114.613281 256 256zm0 0" fill="#ffa8b4"/><path d="m499.070312 336.503906-232.1875-232.191406c-11.535156 19.675781-86.632812 9.777344-86.632812 9.777344l-25.675781 67.207031-11.359375 46.105469 79.515625 79.515625 18.089843 111.199219 84.402344 84.402343c81.9375-22.960937 147.25-85.667969 173.847656-166.015625zm0 0" fill="#ff5e95"/><path d="m266.96875 152.042969c-1.539062-12.648438-6.539062-24.234375-14.027344-33.789063l13.941406-13.9375-11.746093-11.746094-13.9375 13.9375c-9.554688-7.488281-21.140625-12.488281-33.789063-14.027343v-19.679688h-16.609375v19.679688c-12.644531 1.539062-24.230469 6.539062-33.789062 14.027343l-13.941407-13.9375-11.742187 11.742188 13.9375 13.941406c-7.488281 9.554688-12.488281 21.140625-14.027344 33.785156h-19.679687v16.613282h19.679687c1.539063 12.644531 6.539063 24.230468 14.027344 33.789062l-13.9375 13.9375 11.742187 11.746094 13.941407-13.941406c9.554687 7.488281 21.140625 12.488281 33.785156 14.027344v19.683593h16.613281v-19.683593c12.644532-1.539063 24.230469-6.539063 33.785156-14.027344l13.941407 13.941406 11.746093-11.746094-13.941406-13.9375c7.488282-9.558594 12.488282-21.144531 14.027344-33.789062h19.683594v-16.613282h-19.683594zm-67.863281 38.292969c-16.535157 0-29.984375-13.453126-29.984375-29.988282s13.449218-29.984375 29.984375-29.984375c16.53125 0 29.984375 13.449219 29.984375 29.984375s-13.453125 29.988282-29.984375 29.988282zm0 0" fill="#fff5f5"/><g fill="#c5d3dd"><path d="m266.96875 152.042969c-1.539062-12.648438-6.539062-24.234375-14.027344-33.789063l13.941406-13.9375-11.746093-11.746094-13.9375 13.9375c-9.558594-7.488281-21.144531-12.488281-33.789063-14.027343v-19.679688h-8.800781v57.574219c.164063-.003906.328125-.015625.496094-.015625 16.53125 0 29.984375 13.453125 29.984375 29.988281 0 14.984375-11.046875 27.4375-25.425782 29.640625-.988281.152344-2 .253907-3.019531.308594-.507812.023437-1.023437.039063-1.539062.039063-.167969 0-.332031-.011719-.496094-.015626v57.574219h8.800781v-19.683593c12.648438-1.539063 24.230469-6.535157 33.789063-14.023438l13.9375 13.9375 11.746093-11.746094-13.9375-13.9375c7.488282-9.558594 12.488282-21.140625 14.027344-33.789062h19.679688v-16.609375zm0 0"/><path d="m203.664062 189.988281c-.988281.152344-2 .253907-3.019531.308594 1.019531-.054687 2.03125-.15625 3.019531-.308594zm0 0"/><path d="m198.609375 190.320312c.164063.003907.328125.015626.496094.015626-.167969 0-.332031-.011719-.496094-.015626zm0 0"/></g><path d="m411.683594 299.496094c-2.65625-13.445313-7.941406-25.941406-15.300782-36.933594l13.496094-13.496094-28.246094-28.246094-13.496093 13.496094c-10.996094-7.363281-23.492188-12.644531-36.9375-15.304687v-19.082031h-39.941407v19.082031c-13.445312 2.660156-25.945312 7.941406-36.9375 15.304687l-13.496093-13.496094-28.246094 28.246094 13.496094 13.496094c-7.363281 10.992188-12.644531 23.492188-15.304688 36.933594h-19.082031v39.945312h19.082031c2.660157 13.445313 7.941407 25.941406 15.304688 36.9375l-13.496094 13.492188 28.246094 28.246094 13.496093-13.496094c10.992188 7.363281 23.492188 12.644531 36.9375 15.304687v19.082031h39.941407v-19.082031c13.445312-2.660156 25.945312-7.941406 36.9375-15.304687l13.496093 13.496094 28.246094-28.246094-13.496094-13.492188c7.359376-10.996094 12.644532-23.492187 15.300782-36.9375h19.085937v-39.945312zm-100.457032 60.332031c-22.289062 0-40.359374-18.070313-40.359374-40.359375s18.070312-40.359375 40.359374-40.359375c22.289063 0 40.359376 18.070313 40.359376 40.359375s-18.070313 40.359375-40.359376 40.359375zm0 0" fill="#635656"/><path d="m368.136719 404.621094 13.496093 13.496094 28.246094-28.242188-13.496094-13.496094c7.359376-10.996094 12.644532-23.492187 15.300782-36.9375h19.082031v-39.945312h-19.082031c-2.65625-13.441406-7.941406-25.941406-15.300782-36.933594l13.496094-13.496094-28.246094-28.246094-13.496093 13.496094c-10.996094-7.363281-23.492188-12.644531-36.9375-15.300781v-19.085937h-19.972657v79.183593c22.289063 0 40.359376 18.070313 40.359376 40.359375 0 22.289063-18.070313 40.355469-40.359376 40.355469v79.183594h19.972657v-19.082031c13.445312-2.664063 25.945312-7.945313 36.9375-15.308594zm0 0" fill="#372f2f"/></svg>